<svg version="1.0" xmlns="http://www.w3.org/2000/svg" width="2730.667" height="2730.667" viewBox="0 0 2048 2048"><path d="M995.1 143.6c-33.8 4.6-68.9 19.5-96.1 40.7-15.3 12-32.1 30.3-43.7 47.7-2.8 4.1-48.7 83.2-102.1 175.7L656.1 576l183.7 318.4c136.3 236.2 184 318.1 184.8 317.3.6-.7 83.5-144 184.2-318.5L1392 576l-95.6-165.8c-52.6-91.1-97.9-169.3-100.6-173.7-11.3-17.9-28.4-37.3-43.8-49.8-29.7-24-66.3-39.4-103.5-43.7-12.5-1.4-40.9-1.1-53.4.6zM456.8 920.9c-97.8 169.3-178 308.5-178.4 309.4-.6 1.6 23.9 1.7 356.5 1.7 196.4 0 357.1-.3 357.1-.6 0-1-356.4-618.4-357-618.4-.3 0-80.5 138.6-178.2 307.9zm954.9-305.8c-2.9 4.6-355.7 615.9-355.7 616.4 0 .3 160.7.5 357 .5 196.4 0 357-.2 357-.4 0-.3-78.9-137.2-175.3-304.3-96.5-167.1-176.8-306.2-178.4-309.2l-3.1-5.3-1.5 2.3zM160.5 1434.2c-52.8 91.4-98.5 171.2-101.6 177.3-14.2 27.8-20.7 53.1-21.6 84.6-.8 26.5 1.9 46.1 9.3 68.5 22.4 67.6 75.8 117.9 143.3 134.8 24.5 6.2 17.2 6 173.1 6.4 152.2.4 162.8.1 184.8-4.4 53.7-11 101.3-43.7 130.7-89.9 5.8-9.2 312.1-539.4 313.2-542.3.4-.9-73.5-1.2-367.4-1.2H256.4l-95.9 166.2zm895.8-164.9c1.2 3.2 310.6 538.2 315.5 545.6 15 22.8 36.8 44 61.2 59.6 16.1 10.3 41.6 21 60.8 25.5 23.8 5.5 16.4 5.3 169.2 5.7 151.4.5 163.8.2 185.8-4.3 58.1-11.7 107.8-48.2 136.6-100.4 11.8-21.3 19.1-42.1 23.7-68 1.9-10 1.9-50.7.1-61-3.6-20.2-10.7-42-19.2-59-4.3-8.6-190.9-332.5-196.6-341.3l-2.4-3.7h-367.6c-296.7 0-367.5.2-367.1 1.3z"/></svg>