<?xml version="1.0" standalone="no"?>
<!DOCTYPE svg PUBLIC "-//W3C//DTD SVG 20010904//EN"
 "http://www.w3.org/TR/2001/REC-SVG-20010904/DTD/svg10.dtd">
<svg version="1.0" xmlns="http://www.w3.org/2000/svg"
 width="2048.000000pt" height="2048.000000pt" viewBox="0 0 2048.000000 2048.000000"
 preserveAspectRatio="xMidYMid meet">
<metadata>
Created by potrace 1.14, written by Peter Selinger 2001-2017
</metadata>
<g transform="translate(0.000000,2048.000000) scale(0.100000,-0.100000)"
fill="#000000" stroke="none">
<path d="M9951 19044 c-338 -46 -689 -195 -961 -407 -153 -120 -321 -303 -437
-477 -28 -41 -487 -832 -1021 -1757 l-971 -1683 1837 -3184 c1363 -2362 1840
-3181 1848 -3173 6 7 835 1440 1842 3185 l1832 3172 -956 1658 c-526 911 -979
1693 -1006 1737 -113 179 -284 373 -438 498 -297 240 -663 394 -1035 437 -125
14 -409 11 -534 -6z"/>
<path d="M4568 11271 c-978 -1693 -1780 -3085 -1784 -3094 -6 -16 239 -17
3565 -17 1964 0 3571 3 3571 6 0 10 -3564 6184 -3570 6184 -3 0 -805 -1386
-1782 -3079z"/>
<path d="M14117 14329 c-29 -46 -3557 -6159 -3557 -6164 0 -3 1607 -5 3570 -5
1964 0 3570 2 3570 4 0 3 -789 1372 -1753 3043 -965 1671 -1768 3062 -1784
3092 l-31 53 -15 -23z"/>
<path d="M1605 6138 c-528 -914 -985 -1712 -1016 -1773 -142 -278 -207 -531
-216 -846 -8 -265 19 -461 93 -685 224 -676 758 -1179 1433 -1348 245 -62 172
-60 1731 -64 1522 -4 1628 -1 1848 44 537 110 1013 437 1307 899 58 92 3121
5394 3132 5423 4 9 -735 12 -3674 12 l-3679 0 -959 -1662z"/>
<path d="M10563 7787 c12 -32 3106 -5382 3155 -5456 150 -228 368 -440 612
-596 161 -103 416 -210 608 -255 238 -55 164 -53 1692 -57 1514 -5 1638 -2
1858 43 581 117 1078 482 1366 1004 118 213 191 421 237 680 19 100 19 507 1
610 -36 202 -107 420 -192 590 -43 86 -1909 3325 -1966 3413 l-24 37 -3676 0
c-2967 0 -3675 -2 -3671 -13z"/>
</g>
</svg>
